<svg width="65" height="65" viewBox="0 0 65 65" fill="none" xmlns="http://www.w3.org/2000/svg">
<rect width="65" height="65" rx="18" fill="#55ACEE"/>
<path fill-rule="evenodd" clip-rule="evenodd" d="M28.1435 28.4535H33.7145V31.2285C34.517 29.6325 36.575 28.1985 39.6665 28.1985C45.593 28.1985 47 31.3755 47 37.2045V48H41V38.532C41 35.2125 40.1975 33.3405 38.1545 33.3405C35.321 33.3405 34.1435 35.358 34.1435 38.5305V48H28.1435V28.4535ZM17.855 47.745H23.855V28.1985H17.855V47.745ZM24.7145 21.825C24.7147 22.3279 24.615 22.8259 24.4211 23.2899C24.2272 23.7539 23.943 24.1748 23.585 24.528C22.8596 25.2489 21.8777 25.6525 20.855 25.65C19.8341 25.6493 18.8545 25.2468 18.128 24.5295C17.7713 24.1751 17.4881 23.7537 17.2945 23.2896C17.101 22.8256 17.0009 22.3278 17 21.825C17 20.8095 17.405 19.8375 18.1295 19.1205C18.8553 18.4022 19.8354 17.9996 20.8565 18C21.8795 18 22.8605 18.4035 23.585 19.1205C24.308 19.8375 24.7145 20.8095 24.7145 21.825Z" fill="white"/>
</svg>
