<svg width="65" height="65" viewBox="0 0 65 65" fill="none" xmlns="http://www.w3.org/2000/svg">
<rect width="65" height="65" rx="18" fill="white"/>
<path d="M51 21.5313C49.6519 22.1206 48.2221 22.5074 46.7579 22.6788C48.283 21.7769 49.454 20.3487 50.0054 18.647C48.5556 19.4959 46.9694 20.094 45.3154 20.4154C43.968 18.9991 42.0487 18.114 39.9242 18.114C35.8453 18.114 32.5382 21.377 32.5382 25.4015C32.5382 25.9727 32.6036 26.5289 32.7294 27.0624C26.5912 26.7584 21.149 23.8571 17.5061 19.448C16.8705 20.5243 16.5062 21.7763 16.5062 23.1117C16.5062 25.6401 17.8103 27.8706 19.7919 29.1776C18.6191 29.1413 17.472 28.8288 16.4465 28.266C16.446 28.2965 16.446 28.327 16.446 28.3577C16.446 31.8886 18.9919 34.8341 22.3706 35.5036C21.283 35.7955 20.1421 35.8382 19.0352 35.6285C19.975 38.5238 22.7027 40.6306 25.9346 40.6896C23.4068 42.6441 20.2221 43.8093 16.7619 43.8093C16.1656 43.8093 15.5778 43.7747 15 43.7074C18.2685 45.7752 22.1508 46.9816 26.3217 46.9816C39.9071 46.9816 47.3359 35.8769 47.3359 26.2466C47.3359 25.9306 47.3288 25.6163 47.3145 25.3038C48.7605 24.2724 50.0085 22.9949 51 21.5313Z" fill="#55ACEE"/>
</svg>
