<svg width="143" height="143" viewBox="0 0 143 143" fill="none" xmlns="http://www.w3.org/2000/svg">
<g filter="url(#filter0_dd_2594_298)">
<rect x="9.5" width="124" height="124" rx="41.0443" fill="#83CD29" shape-rendering="crispEdges"/>
<path d="M71.4999 103.892C70.2763 103.892 69.0742 103.595 68.0144 103.03L56.923 96.9647C55.2677 96.1089 56.0743 95.8067 56.6217 95.6301C58.3822 95.1277 60.0678 94.4241 61.6394 93.5355C61.771 93.4793 61.9159 93.455 62.0604 93.465C62.205 93.4749 62.3444 93.5188 62.4654 93.5924L70.9881 98.2694C71.1468 98.3469 71.3236 98.3875 71.5032 98.3875C71.6827 98.3875 71.8595 98.3469 72.0182 98.2694L105.254 80.5488C105.409 80.4628 105.538 80.3408 105.627 80.195C105.716 80.0492 105.763 79.8845 105.762 79.717V44.27C105.762 44.0998 105.715 43.9326 105.625 43.7842C105.535 43.6359 105.405 43.5115 105.247 43.4231L72.0117 25.7176C71.855 25.6361 71.6782 25.5932 71.4983 25.5932C71.3184 25.5932 71.1416 25.6361 70.9849 25.7176L37.7688 43.4291C37.6104 43.5157 37.4788 43.6386 37.3869 43.7859C37.295 43.9332 37.2458 44.0999 37.2441 44.27V79.702C37.2445 79.8691 37.2931 80.0331 37.3847 80.1772C37.4763 80.3212 37.6078 80.4402 37.7656 80.5219L46.8811 85.3814C51.821 87.6616 54.8466 84.9745 54.8466 82.2754V47.2922C54.8466 47.0541 54.9489 46.8258 55.1312 46.6574C55.3134 46.4891 55.5606 46.3945 55.8184 46.3945H60.0295C60.2872 46.3945 60.5344 46.4891 60.7166 46.6574C60.8989 46.8258 61.0013 47.0541 61.0013 47.2922V82.2784C61.0013 88.3678 57.4121 91.8538 51.1602 91.8538C48.4631 91.8972 45.8082 91.2309 43.5057 89.9328L34.7692 85.3036C33.7086 84.7331 32.8286 83.9156 32.217 82.9326C31.6054 81.9497 31.2836 80.8358 31.2837 79.702V44.27C31.2806 43.1345 31.601 42.0182 32.2128 41.0334C32.8247 40.0485 33.7063 39.2297 34.7692 38.6594L68.0079 20.9329C69.0786 20.3918 70.2795 20.1082 71.4999 20.1082C72.7204 20.1082 73.9212 20.3918 74.9919 20.9329L108.227 38.6594C109.288 39.2288 110.168 40.0452 110.78 41.027C111.392 42.0089 111.715 43.1219 111.716 44.255V79.702C111.714 80.8358 111.391 81.9493 110.779 82.932C110.167 83.9147 109.287 84.7323 108.227 85.3036L74.9919 103.03C73.9302 103.596 72.7257 103.893 71.4999 103.892V103.892Z" fill="white"/>
<path d="M65.1948 67.8455C65.1948 67.6075 65.2972 67.3791 65.4795 67.2108C65.6617 67.0424 65.9089 66.9478 66.1666 66.9478H70.4652C70.6949 66.9485 70.9169 67.0243 71.0918 67.1618C71.2667 67.2993 71.3833 67.4896 71.4208 67.6989C72.0687 71.7415 74.0123 73.7793 82.8005 73.7793C89.8007 73.7793 92.7841 72.3161 92.7841 68.8839C92.7841 66.9059 91.9387 65.4367 81.0578 64.4522C71.9618 63.6204 66.3383 61.7592 66.3383 55.0444C66.3383 48.8503 71.9909 45.1548 81.4659 45.1548C92.1136 45.1548 97.384 48.569 98.0513 55.8942C98.0615 56.0165 98.0444 56.1394 98.0012 56.2554C97.958 56.3714 97.8895 56.4779 97.7999 56.5685C97.7104 56.6591 97.6017 56.7317 97.4806 56.782C97.3594 56.8323 97.2285 56.8591 97.0957 56.8607H92.7679C92.5508 56.8579 92.341 56.788 92.1719 56.6622C92.0028 56.5364 91.8842 56.3619 91.835 56.1665C90.8017 51.9144 88.2718 50.5559 81.4692 50.5559C73.8244 50.5559 72.9368 53.0156 72.9368 54.8589C72.9368 57.0911 73.9863 57.7435 84.3068 59.0032C94.5204 60.251 99.3729 62.0165 99.3729 68.6475C99.3729 75.3383 93.3348 79.1685 82.8038 79.1685C68.243 79.1864 65.1948 73.0193 65.1948 67.8455Z" fill="white"/>
</g>
<defs>
<filter id="filter0_dd_2594_298" x="0.37904" y="0" width="142.242" height="142.242" filterUnits="userSpaceOnUse" color-interpolation-filters="sRGB">
<feFlood flood-opacity="0" result="BackgroundImageFix"/>
<feColorMatrix in="SourceAlpha" type="matrix" values="0 0 0 0 0 0 0 0 0 0 0 0 0 0 0 0 0 0 127 0" result="hardAlpha"/>
<feOffset dy="9.12096"/>
<feGaussianBlur stdDeviation="4.56048"/>
<feComposite in2="hardAlpha" operator="out"/>
<feColorMatrix type="matrix" values="0 0 0 0 0.513726 0 0 0 0 0.803922 0 0 0 0 0.160784 0 0 0 0.2 0"/>
<feBlend mode="normal" in2="BackgroundImageFix" result="effect1_dropShadow_2594_298"/>
<feColorMatrix in="SourceAlpha" type="matrix" values="0 0 0 0 0 0 0 0 0 0 0 0 0 0 0 0 0 0 127 0" result="hardAlpha"/>
<feOffset dy="9.12096"/>
<feGaussianBlur stdDeviation="4.56048"/>
<feComposite in2="hardAlpha" operator="out"/>
<feColorMatrix type="matrix" values="0 0 0 0 0.513726 0 0 0 0 0.803922 0 0 0 0 0.160784 0 0 0 0.2 0"/>
<feBlend mode="normal" in2="effect1_dropShadow_2594_298" result="effect2_dropShadow_2594_298"/>
<feBlend mode="normal" in="SourceGraphic" in2="effect2_dropShadow_2594_298" result="shape"/>
</filter>
</defs>
</svg>
