<svg width="144" height="143" viewBox="0 0 144 143" fill="none" xmlns="http://www.w3.org/2000/svg">
<g filter="url(#filter0_dd_2594_291)">
<rect x="10" width="124" height="124" rx="41.0443" fill="#38BDF8" shape-rendering="crispEdges"/>
<path d="M113.892 62.0087C113.892 56.3995 106.941 51.0836 96.2847 47.7871C98.7439 36.8103 97.6509 28.0771 92.835 25.2811C91.7249 24.6253 90.427 24.3146 89.0095 24.3146V28.1634C89.7951 28.1634 90.427 28.3188 90.9564 28.6122C93.279 29.9584 94.2866 35.0844 93.501 41.6774C93.3132 43.2997 93.0058 45.0084 92.63 46.7516C89.2828 45.9231 85.6281 45.2845 81.7856 44.8703C79.4801 41.6774 77.0892 38.7778 74.6813 36.2407C80.2486 31.0112 85.4744 28.1462 89.0266 28.1462V24.2974C84.3302 24.2974 78.1822 27.6802 71.9659 33.5483C65.7496 27.7147 59.6015 24.3664 54.9051 24.3664V28.2152C58.4403 28.2152 63.6831 31.063 69.2505 36.258C66.8596 38.7951 64.4687 41.6774 62.1974 44.8703C58.3378 45.2845 54.6831 45.9231 51.3359 46.7688C50.9431 45.0429 50.6528 43.3688 50.4478 41.7637C49.6452 35.1707 50.6357 30.0447 52.9412 28.6812C53.4535 28.3705 54.1196 28.2325 54.9051 28.2325V24.3837C53.4706 24.3837 52.1727 24.6943 51.0456 25.3502C46.2467 28.1462 45.1708 36.8621 47.6471 47.8044C37.0247 51.1181 30.1082 56.4167 30.1082 62.0087C30.1082 67.6179 37.0588 72.9338 47.7154 76.2303C45.2562 87.2071 46.3492 95.9403 51.1651 98.7362C52.2752 99.3921 53.5731 99.7028 55.0076 99.7028C59.704 99.7028 65.852 96.32 72.0684 90.4518C78.2847 96.2854 84.4327 99.6337 89.1291 99.6337C90.5636 99.6337 91.8616 99.3231 92.9887 98.6672C97.7876 95.8712 98.8635 87.1553 96.3872 76.213C106.975 72.9165 113.892 67.6007 113.892 62.0087ZM91.6566 50.4968C91.0247 52.7232 90.2392 55.0187 89.3511 57.3142C88.6509 55.9335 87.9166 54.5527 87.1139 53.172C86.3283 51.7913 85.4915 50.445 84.6547 49.1333C87.0798 49.4958 89.4194 49.9445 91.6566 50.4968ZM83.835 68.8778C82.5029 71.2078 81.1367 73.417 79.7192 75.4709C77.1746 75.6952 74.5959 75.816 72 75.816C69.4213 75.816 66.8425 75.6952 64.315 75.4881C62.8976 73.4343 61.5143 71.2424 60.1822 68.9296C58.8843 66.6687 57.7059 64.3732 56.63 62.0605C57.6888 59.7477 58.8843 57.435 60.1651 55.1741C61.4972 52.8441 62.8634 50.6349 64.2809 48.581C66.8255 48.3567 69.4042 48.2359 72 48.2359C74.5788 48.2359 77.1575 48.3567 79.6851 48.5638C81.1025 50.6176 82.4858 52.8095 83.8179 55.1223C85.1158 57.3832 86.2942 59.6787 87.3701 61.9914C86.2942 64.3042 85.1158 66.6169 83.835 68.8778ZM89.3511 66.6342C90.2733 68.9469 91.0589 71.2596 91.7079 73.5033C89.4707 74.0556 87.1139 74.5216 84.6718 74.884C85.5086 73.5551 86.3454 72.1916 87.131 70.7936C87.9166 69.4129 88.6509 68.0149 89.3511 66.6342ZM72.0342 85.0497C70.446 83.3928 68.8577 81.5461 67.2866 79.5268C68.8236 79.5958 70.3947 79.6476 71.983 79.6476C73.5883 79.6476 75.1765 79.6131 76.7306 79.5268C75.1936 81.5461 73.6054 83.3928 72.0342 85.0497ZM59.3283 74.884C56.9033 74.5216 54.5636 74.0729 52.3264 73.5206C52.9583 71.2941 53.7439 68.9987 54.6319 66.7032C55.3321 68.0839 56.0664 69.4647 56.8691 70.8454C57.6718 72.2261 58.4915 73.5724 59.3283 74.884ZM71.9488 38.9677C73.5371 40.6246 75.1253 42.4713 76.6964 44.4906C75.1594 44.4216 73.5883 44.3698 72 44.3698C70.3947 44.3698 68.8065 44.4043 67.2524 44.4906C68.7894 42.4713 70.3777 40.6246 71.9488 38.9677ZM59.3112 49.1333C58.4744 50.4623 57.6376 51.8258 56.852 53.2238C56.0664 54.6045 55.3321 55.9852 54.6319 57.366C53.7097 55.0532 52.9241 52.7405 52.2752 50.4968C54.5124 49.9618 56.8691 49.4958 59.3112 49.1333ZM43.8558 70.7418C37.8103 68.1357 33.8994 64.7184 33.8994 62.0087C33.8994 59.299 37.8103 55.8644 43.8558 53.2755C45.3245 52.637 46.9298 52.0674 48.5864 51.5324C49.5598 54.9152 50.8406 58.436 52.4289 62.0432C50.8577 65.6331 49.5939 69.1367 48.6376 72.5023C46.9469 71.9672 45.3416 71.3804 43.8558 70.7418ZM53.0437 95.4052C50.7211 94.059 49.7135 88.933 50.4991 82.34C50.6869 80.7177 50.9943 79.009 51.37 77.2658C54.7173 78.0943 58.3719 78.7328 62.2145 79.1471C64.52 82.34 66.9109 85.2396 69.3188 87.7767C63.7515 93.0062 58.5256 95.8712 54.9735 95.8712C54.205 95.854 53.556 95.6986 53.0437 95.4052ZM93.5523 82.2537C94.3549 88.8467 93.3644 93.9727 91.0589 95.3362C90.5466 95.6469 89.8805 95.7849 89.0949 95.7849C85.5598 95.7849 80.3169 92.9372 74.7496 87.7421C77.1405 85.205 79.5314 82.3228 81.8027 79.1298C85.6623 78.7156 89.317 78.077 92.6642 77.2313C93.057 78.9745 93.3644 80.6486 93.5523 82.2537ZM100.127 70.7418C98.6585 71.3804 97.0532 71.95 95.3967 72.485C94.4232 69.1022 93.1424 65.5813 91.5541 61.9742C93.1253 58.3843 94.3891 54.8806 95.3454 51.5151C97.0361 52.0501 98.6414 52.637 100.144 53.2755C106.19 55.8817 110.101 59.299 110.101 62.0087C110.084 64.7184 106.173 68.153 100.127 70.7418Z" fill="white"/>
<path d="M71.9823 69.8957C76.2926 69.8957 79.7869 66.3644 79.7869 62.0083C79.7869 57.6522 76.2926 54.1208 71.9823 54.1208C67.672 54.1208 64.1777 57.6522 64.1777 62.0083C64.1777 66.3644 67.672 69.8957 71.9823 69.8957Z" fill="white"/>
</g>
<defs>
<filter id="filter0_dd_2594_291" x="0.87904" y="0" width="142.242" height="142.242" filterUnits="userSpaceOnUse" color-interpolation-filters="sRGB">
<feFlood flood-opacity="0" result="BackgroundImageFix"/>
<feColorMatrix in="SourceAlpha" type="matrix" values="0 0 0 0 0 0 0 0 0 0 0 0 0 0 0 0 0 0 127 0" result="hardAlpha"/>
<feOffset dy="9.12096"/>
<feGaussianBlur stdDeviation="4.56048"/>
<feComposite in2="hardAlpha" operator="out"/>
<feColorMatrix type="matrix" values="0 0 0 0 0.027451 0 0 0 0 0.494118 0 0 0 0 0.854902 0 0 0 0.2 0"/>
<feBlend mode="normal" in2="BackgroundImageFix" result="effect1_dropShadow_2594_291"/>
<feColorMatrix in="SourceAlpha" type="matrix" values="0 0 0 0 0 0 0 0 0 0 0 0 0 0 0 0 0 0 127 0" result="hardAlpha"/>
<feOffset dy="9.12096"/>
<feGaussianBlur stdDeviation="4.56048"/>
<feComposite in2="hardAlpha" operator="out"/>
<feColorMatrix type="matrix" values="0 0 0 0 0.0313726 0 0 0 0 0.639216 0 0 0 0 0.901961 0 0 0 0.1 0"/>
<feBlend mode="normal" in2="effect1_dropShadow_2594_291" result="effect2_dropShadow_2594_291"/>
<feBlend mode="normal" in="SourceGraphic" in2="effect2_dropShadow_2594_291" result="shape"/>
</filter>
</defs>
</svg>
