<svg width="144" height="143" viewBox="0 0 144 143" fill="none" xmlns="http://www.w3.org/2000/svg">
<g filter="url(#filter0_dd_2594_305)">
<rect x="10" width="124" height="124" rx="41.0443" fill="#00618A" shape-rendering="crispEdges"/>
<path d="M23.8243 83.2133H27.0744V69.765L32.1058 81.4887C32.6995 82.9078 33.5121 83.4098 35.1057 83.4098C36.6996 83.4098 37.4808 82.9078 38.0747 81.4887L43.106 69.765V83.2133H46.3563V69.787C46.3563 68.4772 45.856 67.8439 44.8249 67.5167C42.3561 66.7089 40.6997 67.4074 39.9496 69.154L35.0121 80.7244L30.2307 69.154C29.512 67.4074 27.8244 66.7089 25.3557 67.5167C24.3243 67.8439 23.8243 68.4772 23.8243 69.787V83.2133Z" fill="white"/>
<path d="M49.0576 72.2665H52.3067V79.6755C52.2763 80.0781 52.4299 81.0227 54.2104 81.0522C55.1187 81.067 61.2207 81.0522 61.2777 81.0522V72.2305H64.5343C64.5492 72.2305 64.531 84.2607 64.5313 84.3119C64.5492 87.2789 61.018 87.9233 59.3904 87.9732H49.1282V85.6822C49.1462 85.6822 59.3828 85.6843 59.4086 85.6817C61.5004 85.4501 61.2534 84.3607 61.2531 83.994V83.1008H54.3452C51.1314 83.0698 49.0847 81.6001 49.0594 79.9092C49.0571 79.7524 49.1287 72.3405 49.0576 72.2665Z" fill="white"/>
<path d="M67.04 83.2115H76.3838C77.4776 83.2115 78.5403 82.9715 79.3841 82.5565C80.7902 81.88 81.4778 80.9632 81.4778 79.7621V77.2735C81.4778 76.291 80.6966 75.3739 79.1652 74.7629C78.3525 74.4352 77.3526 74.2607 76.3838 74.2607H72.4461C71.1339 74.2607 70.5088 73.8459 70.3526 72.9291C70.3212 72.8199 70.3212 72.7323 70.3212 72.6233V71.0736C70.3212 70.986 70.3212 70.8985 70.3526 70.7895C70.5088 70.091 70.8527 69.8942 72.0088 69.7852C72.1027 69.7852 72.2274 69.7632 72.3213 69.7632H81.6028V67.4932H72.4775C71.165 67.4932 70.4774 67.5804 69.8525 67.7767C67.9149 68.4099 67.0712 69.4142 67.0712 71.1608V73.1474C67.0712 74.6757 68.7276 75.9855 71.5087 76.291C71.8215 76.3127 72.1338 76.3345 72.4461 76.3345H75.8212C75.9465 76.3345 76.0715 76.3345 76.1651 76.3565C77.1964 76.444 77.6338 76.6402 77.9466 77.0333C78.1339 77.2295 78.1964 77.4263 78.1964 77.6445V79.6311C78.1964 79.8714 78.0402 80.1771 77.7279 80.4389C77.4465 80.7009 76.9778 80.8757 76.3527 80.9194C76.2277 80.9194 76.134 80.9412 76.009 80.9412H67.04V83.2115Z" fill="#E48E00"/>
<path d="M101.75 79.2601C101.75 81.5959 103.406 82.906 106.75 83.168C107.062 83.1898 107.375 83.2115 107.687 83.2115H116.156V80.9412H107.625C105.719 80.9412 105 80.4389 105 79.2384V67.4932H101.75V79.2601Z" fill="#E48E00"/>
<path d="M83.5498 79.3798V71.2855C83.5498 69.2292 84.9278 67.982 87.652 67.5882C87.9339 67.5447 88.2472 67.5227 88.5289 67.5227H94.698C95.0111 67.5227 95.2933 67.5447 95.6063 67.5882C98.3308 67.982 99.7085 69.2292 99.7085 71.2855V79.3798C99.7085 81.0481 99.1234 81.9411 97.7748 82.5229L100.976 85.5509H97.2025L94.6125 83.101L92.005 83.2742H88.5289C87.9339 83.2742 87.3078 83.1864 86.6187 82.9896C84.552 82.399 83.5498 81.2614 83.5498 79.3798ZM87.0578 79.183C87.0578 79.2926 87.0889 79.4018 87.1203 79.5331C87.3081 80.4737 88.1536 80.9988 89.4375 80.9988H92.3902L89.6779 78.4331H93.4516L95.8172 80.6708C96.253 80.4273 96.54 80.055 96.6402 79.5768C96.6713 79.4676 96.6713 79.3581 96.6713 79.2488V71.4826C96.6713 71.3951 96.6713 71.2855 96.6402 71.176C96.4521 70.3011 95.6066 69.7981 94.3541 69.7981H89.4375C87.9972 69.7981 87.0578 70.4544 87.0578 71.4826V79.183Z" fill="#E48E00"/>
<path d="M117.278 66.8423C115.28 66.7855 113.754 66.9802 112.449 67.5567C112.078 67.7206 111.487 67.7248 111.427 68.2117C111.63 68.4356 111.662 68.7697 111.824 69.045C112.135 69.5732 112.661 70.281 113.131 70.6523C113.643 71.0578 114.172 71.4917 114.721 71.8428C115.699 72.4676 116.791 72.8243 117.732 73.4501C118.287 73.819 118.838 74.2836 119.379 74.7C119.647 74.9058 119.827 75.2259 120.175 75.3547C120.175 75.3351 120.175 75.3152 120.175 75.2953C119.992 75.0516 119.945 74.7164 119.777 74.4618C119.531 74.2041 119.285 73.946 119.038 73.688C118.316 72.6837 117.4 71.8017 116.425 71.0689C115.648 70.4844 113.909 69.695 113.585 68.7474C113.566 68.7275 113.547 68.7076 113.528 68.6878C114.079 68.6228 114.724 68.4138 115.233 68.2711C116.087 68.0311 116.85 68.0932 117.732 67.8545C118.13 67.7354 118.527 67.6161 118.925 67.4973C118.925 67.4177 118.925 67.3387 118.925 67.2592C118.479 66.7797 118.161 66.1453 117.675 65.7115C116.403 64.5765 115.015 63.4425 113.585 62.4969C112.792 61.9725 111.812 61.6317 110.972 61.1872C110.689 61.0378 110.193 60.9601 110.006 60.711C109.565 60.1213 109.324 59.3739 108.984 58.687C108.271 57.2482 107.57 55.6767 106.939 54.163C106.508 53.1307 106.226 52.1126 105.689 51.1865C103.11 46.7427 100.333 44.0604 96.0318 41.424C95.1167 40.8634 94.0148 40.6419 92.8504 40.3526C92.2258 40.313 91.6006 40.2731 90.9758 40.2335C90.5944 40.0665 90.1976 39.5775 89.8397 39.3406C88.4149 38.3974 84.7601 36.3457 83.7048 39.043C83.0384 40.7455 84.7006 42.4069 85.2951 43.2695C85.7125 43.8747 86.2467 44.5533 86.5448 45.2339C86.741 45.6811 86.7749 46.1297 86.9427 46.6031C87.3557 47.769 87.7148 49.0375 88.2491 50.1151C88.5191 50.6603 88.8168 51.2347 89.1582 51.7223C89.3675 52.0215 89.7261 52.1533 89.7828 52.6153C89.432 53.1296 89.412 53.928 89.2148 54.5797C88.327 57.5131 88.6619 61.1593 89.9533 63.3303C90.3497 63.9967 91.283 65.4261 92.5664 64.878C93.6891 64.3988 93.4383 62.9139 93.7594 61.6039C93.8321 61.3069 93.7875 61.0886 93.9298 60.8897C93.9298 60.9093 93.9298 60.9293 93.9298 60.9492C94.2707 61.6635 94.6116 62.3778 94.9525 63.0919C95.7092 64.3691 97.0523 65.7038 98.1904 66.6044C98.7806 67.0714 99.2452 67.8789 100.008 68.1521C100.008 68.1322 100.008 68.1126 100.008 68.0924C99.989 68.0924 99.9703 68.0924 99.9513 68.0924C99.8035 67.8508 99.5722 67.7508 99.3834 67.5567C98.9387 67.1 98.4445 66.5323 98.0767 66.009C97.0416 64.5364 96.1268 62.9246 95.2934 61.2468C94.8953 60.4458 94.5493 59.5619 94.2137 58.7466C94.0844 58.4322 94.0859 57.957 93.8164 57.7941C93.4489 58.3916 92.9076 58.8746 92.6234 59.58C92.1688 60.7076 92.1101 62.0828 91.9418 63.5088C91.8421 63.5462 91.8864 63.5204 91.8279 63.5682C91.0368 63.3682 90.7586 62.5147 90.4648 61.7826C89.721 59.9309 89.5828 56.9493 90.2373 54.8179C90.4066 54.2665 91.1719 52.5296 90.8622 52.0202C90.7144 51.5118 90.2264 51.2178 89.9533 50.8294C89.6155 50.3492 89.2781 49.7171 89.0443 49.1626C88.4356 47.7188 88.1514 46.0981 87.5106 44.6387C87.2044 43.941 86.6863 43.2351 86.2609 42.6148C85.7899 41.9278 85.2625 41.4217 84.8975 40.5907C84.7677 40.2954 84.5913 39.8228 84.7839 39.5192C84.8451 39.3144 84.9314 39.2289 85.1248 39.1621C85.4543 38.8959 86.372 39.2507 86.7152 39.4001C87.6263 39.7966 88.3865 40.1742 89.1582 40.7098C89.5287 40.9672 89.9032 41.465 90.3509 41.6027C90.5213 41.6027 90.6918 41.6027 90.8622 41.6027C91.6619 41.7954 92.5578 41.6626 93.3049 41.9003C94.6255 42.3209 95.8089 42.9751 96.8837 43.6862C100.158 45.8526 102.835 48.9365 104.666 52.6153C104.961 53.2076 105.089 53.7729 105.348 54.4012C105.872 55.6681 106.531 56.9718 107.052 58.2108C107.572 59.4469 108.079 60.6944 108.813 61.7231C109.2 62.2638 110.692 62.5539 111.37 62.854C111.845 63.0646 112.624 63.2839 113.074 63.5682C113.934 64.1118 114.767 64.7589 115.574 65.3543C115.977 65.6518 117.216 66.3045 117.278 66.8423Z" fill="white"/>
</g>
<defs>
<filter id="filter0_dd_2594_305" x="0.87904" y="0" width="142.242" height="142.242" filterUnits="userSpaceOnUse" color-interpolation-filters="sRGB">
<feFlood flood-opacity="0" result="BackgroundImageFix"/>
<feColorMatrix in="SourceAlpha" type="matrix" values="0 0 0 0 0 0 0 0 0 0 0 0 0 0 0 0 0 0 127 0" result="hardAlpha"/>
<feOffset dy="9.12096"/>
<feGaussianBlur stdDeviation="4.56048"/>
<feComposite in2="hardAlpha" operator="out"/>
<feColorMatrix type="matrix" values="0 0 0 0 0 0 0 0 0 0.380392 0 0 0 0 0.541176 0 0 0 0.2 0"/>
<feBlend mode="normal" in2="BackgroundImageFix" result="effect1_dropShadow_2594_305"/>
<feColorMatrix in="SourceAlpha" type="matrix" values="0 0 0 0 0 0 0 0 0 0 0 0 0 0 0 0 0 0 127 0" result="hardAlpha"/>
<feOffset dy="9.12096"/>
<feGaussianBlur stdDeviation="4.56048"/>
<feComposite in2="hardAlpha" operator="out"/>
<feColorMatrix type="matrix" values="0 0 0 0 0 0 0 0 0 0.380392 0 0 0 0 0.541176 0 0 0 0.2 0"/>
<feBlend mode="normal" in2="effect1_dropShadow_2594_305" result="effect2_dropShadow_2594_305"/>
<feBlend mode="normal" in="SourceGraphic" in2="effect2_dropShadow_2594_305" result="shape"/>
</filter>
</defs>
</svg>
