<svg width="137" height="22" viewBox="0 0 137 22" fill="none" xmlns="http://www.w3.org/2000/svg">
<path d="M0.308838 17.1138L5.15859 0.139648H9.76585L14.5914 17.1138H11.8997L10.7843 13.1127H4.14014L3.0247 17.1138H0.308838ZM4.79486 10.6879H10.1296L7.65621 1.76432H7.26823L4.79486 10.6879Z" fill="#111827"/>
<path d="M22.5167 17.4533C21.3689 17.4533 20.3262 17.2108 19.3886 16.7258C18.4672 16.2408 17.7316 15.5376 17.182 14.6162C16.6485 13.6947 16.3818 12.5873 16.3818 11.2941V10.9788C16.3818 9.68557 16.6485 8.5863 17.182 7.68101C17.7316 6.75956 18.4672 6.05634 19.3886 5.57137C20.3262 5.07023 21.3689 4.81966 22.5167 4.81966C23.6645 4.81966 24.6425 5.02981 25.4508 5.45013C26.2591 5.87044 26.9057 6.42816 27.3907 7.12329C27.8919 7.81842 28.2152 8.5863 28.3607 9.42692L25.9358 9.93615C25.855 9.40267 25.6852 8.9177 25.4266 8.48122C25.1679 8.04474 24.8042 7.69718 24.3354 7.43852C23.8666 7.17987 23.2765 7.05054 22.5652 7.05054C21.8701 7.05054 21.2396 7.2122 20.6738 7.53552C20.1242 7.84267 19.6877 8.29531 19.3644 8.89345C19.0411 9.47542 18.8794 10.1867 18.8794 11.0273V11.2456C18.8794 12.0862 19.0411 12.8056 19.3644 13.4037C19.6877 14.0019 20.1242 14.4545 20.6738 14.7616C21.2396 15.0688 21.8701 15.2224 22.5652 15.2224C23.616 15.2224 24.4162 14.9556 24.9658 14.4222C25.5155 13.8725 25.863 13.1774 26.0085 12.3368L28.4334 12.8945C28.2394 13.719 27.8919 14.4787 27.3907 15.1739C26.9057 15.869 26.2591 16.4267 25.4508 16.847C24.6425 17.2512 23.6645 17.4533 22.5167 17.4533Z" fill="#111827"/>
<path d="M31.3141 17.1138V0.139648H33.8117V6.85655H34.1997C34.3613 6.5494 34.5877 6.25033 34.8787 5.95935C35.1858 5.66836 35.5819 5.43396 36.0668 5.25614C36.568 5.06215 37.1984 4.96515 37.9582 4.96515C38.8635 4.96515 39.6637 5.16722 40.3589 5.57137C41.0702 5.97552 41.6279 6.5494 42.032 7.29303C42.4362 8.02049 42.6383 8.90153 42.6383 9.93615V17.1138H40.1406V10.1301C40.1406 9.09552 39.882 8.33573 39.3647 7.85075C38.8474 7.34961 38.1361 7.09904 37.2308 7.09904C36.1962 7.09904 35.3636 7.43852 34.7332 8.11749C34.1189 8.79645 33.8117 9.78257 33.8117 11.0758V17.1138H31.3141Z" fill="#111827"/>
<path d="M50.3872 17.1138C49.6598 17.1138 49.0778 16.8955 48.6413 16.4591C48.221 16.0226 48.0109 15.4406 48.0109 14.7131V7.26878H44.713V5.15914H48.0109V1.20659H50.5085V5.15914H54.0731V7.26878H50.5085V14.2767C50.5085 14.7616 50.7348 15.0041 51.1875 15.0041H53.6851V17.1138H50.3872Z" fill="#111827"/>
<path d="M62.0613 17.4533C60.8489 17.4533 59.79 17.2027 58.8847 16.7015C57.9794 16.1842 57.2681 15.4649 56.7508 14.5434C56.2497 13.6058 55.9991 12.5227 55.9991 11.2941V11.0031C55.9991 9.75832 56.2497 8.67521 56.7508 7.75376C57.252 6.81614 57.9471 6.09676 58.8362 5.59562C59.7415 5.07831 60.7842 4.81966 61.9643 4.81966C63.1121 4.81966 64.1144 5.07831 64.9712 5.59562C65.8441 6.09676 66.5231 6.79997 67.0081 7.70526C67.493 8.61055 67.7355 9.66941 67.7355 10.8818V11.8275H58.5452C58.5776 12.8783 58.9251 13.7189 59.5879 14.3494C60.2669 14.9637 61.1075 15.2709 62.1098 15.2709C63.0474 15.2709 63.7506 15.0607 64.2195 14.6404C64.7044 14.2201 65.0762 13.7351 65.3349 13.1855L67.396 14.2524C67.1697 14.7051 66.8383 15.182 66.4018 15.6831C65.9815 16.1842 65.4238 16.6046 64.7287 16.944C64.0335 17.2835 63.1444 17.4533 62.0613 17.4533ZM58.5695 9.9119H65.1894C65.1247 9.00661 64.8014 8.3034 64.2195 7.80225C63.6375 7.28495 62.8777 7.02629 61.9401 7.02629C61.0024 7.02629 60.2346 7.28495 59.6364 7.80225C59.0545 8.3034 58.6988 9.00661 58.5695 9.9119Z" fill="#111827"/>
<path d="M70.742 17.1138V5.15914H73.1911V6.95355H73.5791C73.8054 6.46857 74.2096 6.01593 74.7915 5.59562C75.3735 5.17531 76.2384 4.96515 77.3861 4.96515C78.2914 4.96515 79.0916 5.16722 79.7868 5.57137C80.4981 5.97552 81.0558 6.5494 81.4599 7.29303C81.8641 8.02049 82.0662 8.90153 82.0662 9.93615V17.1138H79.5685V10.1301C79.5685 9.09552 79.3099 8.33573 78.7926 7.85075C78.2753 7.34961 77.564 7.09904 76.6587 7.09904C75.6241 7.09904 74.7915 7.43852 74.1611 8.11749C73.5468 8.79645 73.2396 9.78257 73.2396 11.0758V17.1138H70.742Z" fill="#111827"/>
<path d="M92.5715 17.4533C91.4076 17.4533 90.5104 17.2431 89.8799 16.8228C89.2656 16.4025 88.8049 15.9337 88.4978 15.4164H88.1098V17.1138H85.6607V0.139648H88.1583V6.78381H88.5463C88.7402 6.46049 88.9989 6.15334 89.3222 5.86235C89.6455 5.5552 90.0739 5.30463 90.6074 5.11064C91.1409 4.91665 91.7956 4.81966 92.5715 4.81966C93.5738 4.81966 94.4953 5.06215 95.3359 5.54712C96.1765 6.03209 96.8474 6.73531 97.3485 7.65676C97.8497 8.57821 98.1003 9.67749 98.1003 10.9546V11.3183C98.1003 12.6116 97.8416 13.7189 97.3243 14.6404C96.8232 15.5457 96.1523 16.2408 95.3117 16.7258C94.4872 17.2108 93.5738 17.4533 92.5715 17.4533ZM91.8441 15.2709C92.9272 15.2709 93.8163 14.9233 94.5115 14.2282C95.2227 13.533 95.5784 12.5388 95.5784 11.2456V11.0273C95.5784 9.75024 95.2308 8.76412 94.5357 8.06899C93.8406 7.37386 92.9434 7.02629 91.8441 7.02629C90.7771 7.02629 89.888 7.37386 89.1767 8.06899C88.4816 8.76412 88.134 9.75024 88.134 11.0273V11.2456C88.134 12.5388 88.4816 13.533 89.1767 14.2282C89.888 14.9233 90.7771 15.2709 91.8441 15.2709Z" fill="#111827"/>
<path d="M106.675 17.4533C105.463 17.4533 104.404 17.2027 103.499 16.7015C102.593 16.1842 101.882 15.4649 101.365 14.5434C100.864 13.6058 100.613 12.5227 100.613 11.2941V11.0031C100.613 9.75832 100.864 8.67521 101.365 7.75376C101.866 6.81614 102.561 6.09676 103.45 5.59562C104.355 5.07831 105.398 4.81966 106.578 4.81966C107.726 4.81966 108.728 5.07831 109.585 5.59562C110.458 6.09676 111.137 6.79997 111.622 7.70526C112.107 8.61055 112.349 9.66941 112.349 10.8818V11.8275H103.159C103.191 12.8783 103.539 13.7189 104.202 14.3494C104.881 14.9637 105.721 15.2709 106.724 15.2709C107.661 15.2709 108.365 15.0607 108.833 14.6404C109.318 14.2201 109.69 13.7351 109.949 13.1855L112.01 14.2524C111.784 14.7051 111.452 15.182 111.016 15.6831C110.595 16.1842 110.038 16.6046 109.343 16.944C108.647 17.2835 107.758 17.4533 106.675 17.4533ZM103.183 9.9119H109.803C109.739 9.00661 109.415 8.3034 108.833 7.80225C108.251 7.28495 107.492 7.02629 106.554 7.02629C105.616 7.02629 104.848 7.28495 104.25 7.80225C103.668 8.3034 103.313 9.00661 103.183 9.9119Z" fill="#111827"/>
<path d="M115.356 17.1138V5.15914H117.805V6.56557H118.193C118.387 6.06443 118.694 5.7007 119.114 5.47437C119.551 5.23189 120.084 5.11064 120.715 5.11064H122.146V7.36578H120.618C119.81 7.36578 119.147 7.5921 118.629 8.04474C118.112 8.48122 117.854 9.16018 117.854 10.0816V17.1138H115.356Z" fill="#111827"/>
<path d="M123.725 11.1971V10.8333C123.725 9.57241 123.976 8.49739 124.477 7.60826C124.994 6.71914 125.673 6.03209 126.514 5.54712C127.354 5.06215 128.276 4.81966 129.278 4.81966C130.442 4.81966 131.331 5.0379 131.945 5.47437C132.576 5.91085 133.037 6.37966 133.328 6.8808H133.716V5.15914H136.141V19.5629C136.141 20.2904 135.922 20.8723 135.486 21.3088C135.065 21.7453 134.483 21.9635 133.74 21.9635H125.689V19.7811H132.964C133.433 19.7811 133.667 19.5387 133.667 19.0537V15.2466H133.279C133.101 15.5376 132.851 15.8367 132.527 16.1438C132.204 16.451 131.776 16.7015 131.242 16.8955C130.725 17.0895 130.07 17.1865 129.278 17.1865C128.276 17.1865 127.346 16.9521 126.489 16.4833C125.649 15.9983 124.978 15.3113 124.477 14.4222C123.976 13.5169 123.725 12.4418 123.725 11.1971ZM129.957 15.0041C131.04 15.0041 131.929 14.6646 132.624 13.9857C133.336 13.2906 133.691 12.3368 133.691 11.1243V10.9061C133.691 9.66133 133.344 8.70754 132.649 8.04474C131.954 7.36578 131.056 7.02629 129.957 7.02629C128.89 7.02629 128.001 7.36578 127.29 8.04474C126.595 8.70754 126.247 9.66133 126.247 10.9061V11.1243C126.247 12.3368 126.595 13.2906 127.29 13.9857C128.001 14.6646 128.89 15.0041 129.957 15.0041Z" fill="#111827"/>
</svg>
