<svg width="17" height="16" viewBox="0 0 17 16" fill="none" xmlns="http://www.w3.org/2000/svg">
<path fill-rule="evenodd" clip-rule="evenodd" d="M2.583 7H4.529C4.618 5.454 4.912 4.03 5.366 2.882C4.63501 3.32992 4.00842 3.92919 3.52838 4.6395C3.04834 5.34982 2.72598 6.1547 2.583 7ZM8.5 0C6.37827 0 4.34344 0.842855 2.84315 2.34315C1.34285 3.84344 0.5 5.87827 0.5 8C0.5 10.1217 1.34285 12.1566 2.84315 13.6569C4.34344 15.1571 6.37827 16 8.5 16C10.6217 16 12.6566 15.1571 14.1569 13.6569C15.6571 12.1566 16.5 10.1217 16.5 8C16.5 5.87827 15.6571 3.84344 14.1569 2.34315C12.6566 0.842855 10.6217 0 8.5 0ZM8.5 2C8.424 2 8.268 2.032 8.035 2.262C7.797 2.496 7.538 2.885 7.298 3.444C6.909 4.351 6.625 5.586 6.532 7H10.468C10.375 5.586 10.091 4.351 9.702 3.444C9.462 2.884 9.202 2.496 8.965 2.262C8.732 2.032 8.576 2 8.5 2ZM12.471 7C12.382 5.454 12.088 4.03 11.634 2.882C12.365 3.32992 12.9916 3.92919 13.4716 4.6395C13.9517 5.34982 14.274 6.1547 14.417 7H12.471ZM10.468 9H6.532C6.625 10.414 6.909 11.649 7.298 12.556C7.538 13.116 7.798 13.504 8.035 13.738C8.268 13.968 8.424 14 8.5 14C8.576 14 8.732 13.968 8.965 13.738C9.203 13.504 9.463 13.115 9.702 12.556C10.091 11.649 10.375 10.414 10.468 9ZM11.634 13.118C12.088 11.971 12.382 10.546 12.471 9H14.417C14.274 9.8453 13.9517 10.6502 13.4716 11.3605C12.9916 12.0708 12.365 12.6701 11.634 13.118ZM5.366 13.118C4.912 11.97 4.618 10.546 4.53 9H2.583C2.72598 9.8453 3.04834 10.6502 3.52838 11.3605C4.00842 12.0708 4.63501 12.6701 5.366 13.118Z" fill="black"/>
</svg>
